<svg xmlns="http://www.w3.org/2000/svg" xmlns:xlink="http://www.w3.org/1999/xlink" width="500" zoomAndPan="magnify" viewBox="0 0 375 374.999991" height="500" preserveAspectRatio="xMidYMid meet" version="1.0"><defs><clipPath id="dc91b1d390"><path d="M 47.375 47.375 L 327.875 47.375 L 327.875 327.875 L 47.375 327.875 Z M 47.375 47.375 " clip-rule="nonzero"/></clipPath><clipPath id="3e335edb04"><path d="M 166 168.097656 L 222.171875 168.097656 L 222.171875 224.347656 L 166 224.347656 Z M 166 168.097656 " clip-rule="nonzero"/></clipPath></defs><rect x="-37.5" width="450" fill="#ffffff" y="-37.499999" height="449.999989" fill-opacity="1"/><rect x="-37.5" width="450" fill="#ffffff" y="-37.499999" height="449.999989" fill-opacity="1"/><g clip-path="url(#dc91b1d390)"><path fill="#000000" d="M 117.980469 105.273438 L 117.980469 281.398438 C 117.980469 283.324219 116.417969 284.890625 114.492188 284.890625 C 112.5625 284.890625 111 283.324219 111 281.398438 L 111 105.273438 C 111 103.347656 112.5625 101.78125 114.492188 101.78125 C 116.417969 101.78125 117.980469 103.347656 117.980469 105.273438 Z M 191.824219 143.246094 C 192.257812 143.425781 192.710938 143.511719 193.160156 143.511719 C 194.066406 143.511719 194.960938 143.15625 195.625 142.488281 L 245.867188 92.25 C 247.226562 90.886719 247.226562 88.675781 245.867188 87.3125 C 244.503906 85.953125 242.292969 85.953125 240.925781 87.3125 L 196.644531 131.59375 L 196.644531 105.277344 C 196.644531 103.351562 195.078125 101.785156 193.152344 101.785156 C 191.226562 101.785156 189.660156 103.351562 189.660156 105.277344 L 189.660156 140.027344 C 189.667969 141.429688 190.515625 142.703125 191.824219 143.246094 Z M 301.492188 142.9375 C 300.132812 141.574219 297.921875 141.574219 296.554688 142.9375 L 190.691406 248.804688 C 190.039062 249.457031 189.667969 250.347656 189.667969 251.273438 L 189.667969 281.394531 C 189.667969 283.320312 191.230469 284.886719 193.160156 284.886719 C 195.085938 284.886719 196.648438 283.320312 196.648438 281.394531 L 196.648438 252.714844 L 301.492188 147.875 C 302.863281 146.507812 302.863281 144.304688 301.492188 142.9375 Z M 153.824219 198.710938 C 151.898438 198.710938 150.332031 200.277344 150.332031 202.203125 L 150.332031 208.421875 C 150.332031 210.347656 151.898438 211.914062 153.824219 211.914062 C 155.75 211.914062 157.316406 210.347656 157.316406 208.421875 L 157.316406 202.203125 C 157.316406 200.269531 155.75 198.710938 153.824219 198.710938 Z M 153.824219 218.09375 C 151.898438 218.09375 150.332031 219.660156 150.332031 221.585938 L 150.332031 227.808594 C 150.332031 229.734375 151.898438 231.300781 153.824219 231.300781 C 155.75 231.300781 157.316406 229.734375 157.316406 227.808594 L 157.316406 221.585938 C 157.316406 219.65625 155.75 218.09375 153.824219 218.09375 Z M 153.824219 256.863281 C 151.898438 256.863281 150.332031 258.429688 150.332031 260.355469 L 150.332031 266.578125 C 150.332031 268.503906 151.898438 270.070312 153.824219 270.070312 C 155.75 270.070312 157.316406 268.503906 157.316406 266.578125 L 157.316406 260.355469 C 157.316406 258.429688 155.75 256.863281 153.824219 256.863281 Z M 153.824219 237.480469 C 151.898438 237.480469 150.332031 239.046875 150.332031 240.972656 L 150.332031 247.191406 C 150.332031 249.117188 151.898438 250.683594 153.824219 250.683594 C 155.75 250.683594 157.316406 249.117188 157.316406 247.191406 L 157.316406 240.972656 C 157.316406 239.046875 155.75 237.480469 153.824219 237.480469 Z M 153.824219 179.324219 C 151.898438 179.324219 150.332031 180.890625 150.332031 182.816406 L 150.332031 189.039062 C 150.332031 190.964844 151.898438 192.53125 153.824219 192.53125 C 155.75 192.53125 157.316406 190.964844 157.316406 189.039062 L 157.316406 182.816406 C 157.316406 180.886719 155.75 179.324219 153.824219 179.324219 Z M 153.824219 159.933594 C 151.898438 159.933594 150.332031 161.5 150.332031 163.425781 L 150.332031 169.648438 C 150.332031 171.574219 151.898438 173.140625 153.824219 173.140625 C 155.75 173.140625 157.316406 171.574219 157.316406 169.648438 L 157.316406 163.425781 C 157.316406 161.5 155.75 159.933594 153.824219 159.933594 Z M 153.824219 121.164062 C 151.898438 121.164062 150.332031 122.730469 150.332031 124.65625 L 150.332031 130.878906 C 150.332031 132.804688 151.898438 134.371094 153.824219 134.371094 C 155.75 134.371094 157.316406 132.804688 157.316406 130.878906 L 157.316406 124.65625 C 157.316406 122.730469 155.75 121.164062 153.824219 121.164062 Z M 153.824219 101.78125 C 151.898438 101.78125 150.332031 103.347656 150.332031 105.273438 L 150.332031 111.492188 C 150.332031 113.417969 151.898438 114.984375 153.824219 114.984375 C 155.75 114.984375 157.316406 113.417969 157.316406 111.492188 L 157.316406 105.273438 C 157.316406 103.347656 155.75 101.78125 153.824219 101.78125 Z M 153.824219 276.25 C 151.898438 276.25 150.332031 277.816406 150.332031 279.742188 L 150.332031 285.960938 C 150.332031 287.886719 151.898438 289.453125 153.824219 289.453125 C 155.75 289.453125 157.316406 287.886719 157.316406 285.960938 L 157.316406 279.742188 C 157.316406 277.816406 155.75 276.25 153.824219 276.25 Z M 153.824219 140.550781 C 151.898438 140.550781 150.332031 142.117188 150.332031 144.042969 L 150.332031 150.261719 C 150.332031 152.1875 151.898438 153.753906 153.824219 153.753906 C 155.75 153.753906 157.316406 152.1875 157.316406 150.261719 L 157.316406 144.042969 C 157.316406 142.117188 155.75 140.550781 153.824219 140.550781 Z M 327.875 187.625 C 327.875 264.960938 264.960938 327.875 187.625 327.875 C 110.289062 327.875 47.375 264.960938 47.375 187.625 C 47.375 110.289062 110.289062 47.375 187.625 47.375 C 264.960938 47.375 327.875 110.289062 327.875 187.625 Z M 320.890625 187.625 C 320.890625 114.140625 261.105469 54.355469 187.625 54.355469 C 114.140625 54.355469 54.355469 114.140625 54.355469 187.625 C 54.355469 261.105469 114.140625 320.890625 187.625 320.890625 C 261.105469 320.890625 320.890625 261.105469 320.890625 187.625 Z M 241.332031 142.539062 L 236.933594 146.941406 C 235.570312 148.300781 235.570312 150.511719 236.933594 151.878906 C 237.613281 152.5625 238.507812 152.90625 239.398438 152.90625 C 240.296875 152.90625 241.1875 152.5625 241.867188 151.878906 L 246.265625 147.480469 C 247.628906 146.121094 247.628906 143.90625 246.265625 142.539062 C 244.90625 141.179688 242.695312 141.171875 241.332031 142.539062 Z M 191.4375 197.371094 C 190.074219 196.011719 187.863281 196.011719 186.496094 197.371094 L 182.09375 201.769531 C 180.734375 203.132812 180.734375 205.34375 182.09375 206.707031 C 182.777344 207.386719 183.671875 207.730469 184.5625 207.730469 C 185.453125 207.730469 186.347656 207.386719 187.03125 206.707031 L 191.429688 202.304688 C 192.804688 200.945312 192.804688 198.734375 191.4375 197.371094 Z M 253.105469 139.1875 C 254 139.1875 254.890625 138.84375 255.574219 138.164062 L 259.972656 133.765625 C 261.332031 132.402344 261.332031 130.191406 259.972656 128.824219 C 258.609375 127.460938 256.398438 127.460938 255.035156 128.824219 L 250.636719 133.222656 C 249.277344 134.585938 249.277344 136.796875 250.636719 138.164062 C 251.320312 138.851562 252.214844 139.1875 253.105469 139.1875 Z M 266.816406 125.484375 C 267.710938 125.484375 268.601562 125.140625 269.28125 124.460938 L 273.683594 120.058594 C 275.042969 118.699219 275.042969 116.488281 273.683594 115.117188 C 272.320312 113.757812 270.109375 113.757812 268.742188 115.117188 L 264.34375 119.519531 C 262.980469 120.878906 262.980469 123.089844 264.34375 124.460938 C 265.027344 125.140625 265.917969 125.484375 266.816406 125.484375 Z M 227.621094 156.246094 L 223.222656 160.644531 C 221.859375 162.007812 221.859375 164.21875 223.222656 165.585938 C 223.902344 166.265625 224.800781 166.609375 225.6875 166.609375 C 226.585938 166.609375 227.476562 166.265625 228.15625 165.585938 L 232.554688 161.1875 C 233.917969 159.824219 233.917969 157.613281 232.554688 156.246094 C 231.195312 154.882812 228.984375 154.882812 227.621094 156.246094 Z M 200.207031 183.660156 L 195.804688 188.058594 C 194.445312 189.421875 194.445312 191.632812 195.804688 193 C 196.488281 193.683594 197.382812 194.023438 198.273438 194.023438 C 199.167969 194.023438 200.058594 193.683594 200.742188 193 L 205.140625 188.601562 C 206.503906 187.238281 206.503906 185.027344 205.140625 183.660156 C 203.777344 182.300781 201.566406 182.300781 200.207031 183.660156 Z M 172.789062 211.078125 L 168.390625 215.476562 C 167.027344 216.835938 167.027344 219.050781 168.390625 220.417969 C 169.070312 221.097656 169.96875 221.441406 170.859375 221.441406 C 171.753906 221.441406 172.644531 221.097656 173.324219 220.417969 L 177.726562 216.015625 C 179.085938 214.65625 179.085938 212.445312 177.726562 211.078125 C 176.363281 209.714844 174.15625 209.714844 172.789062 211.078125 Z M 213.917969 169.957031 L 209.515625 174.355469 C 208.15625 175.71875 208.15625 177.929688 209.515625 179.296875 C 210.199219 179.976562 211.09375 180.320312 211.984375 180.320312 C 212.878906 180.320312 213.769531 179.976562 214.453125 179.296875 L 218.851562 174.898438 C 220.214844 173.535156 220.214844 171.324219 218.851562 169.957031 C 217.488281 168.589844 215.277344 168.589844 213.917969 169.957031 Z M 213.917969 169.957031 " fill-opacity="1" fill-rule="nonzero"/></g><g clip-path="url(#3e335edb04)"><path fill="#1e1e1d" d="M 220.632812 168.109375 L 188.191406 168.234375 L 188.1875 168.238281 C 186.847656 168.242188 185.765625 169.324219 185.761719 170.664062 L 185.761719 177.253906 C 185.765625 178.597656 186.851562 179.683594 188.191406 179.6875 L 202.488281 179.6875 L 166.621094 215.550781 C 165.921875 216.253906 165.921875 217.390625 166.621094 218.09375 L 172.164062 223.636719 C 172.867188 224.339844 174.007812 224.339844 174.707031 223.636719 L 210.574219 187.769531 L 210.574219 202.066406 C 210.578125 203.410156 211.664062 204.496094 213.003906 204.5 L 219.59375 204.5 C 220.9375 204.496094 222.019531 203.410156 222.023438 202.066406 L 222.167969 169.640625 C 222.171875 168.792969 221.480469 168.105469 220.632812 168.109375 " fill-opacity="1" fill-rule="nonzero"/></g></svg>