<svg xmlns="http://www.w3.org/2000/svg" xmlns:xlink="http://www.w3.org/1999/xlink" width="500" zoomAndPan="magnify" viewBox="0 0 375 374.999991" height="500" preserveAspectRatio="xMidYMid meet" version="1.0"><defs><g/><clipPath id="5c4cb1b1cf"><path d="M 20.8125 48.109375 L 353.8125 48.109375 L 353.8125 327.109375 L 20.8125 327.109375 Z M 20.8125 48.109375 " clip-rule="nonzero"/></clipPath><clipPath id="653a224dd7"><path d="M 66.429688 87.320312 L 308.570312 87.320312 L 308.570312 151.070312 L 66.429688 151.070312 Z M 66.429688 87.320312 " clip-rule="nonzero"/></clipPath></defs><rect x="-37.5" width="450" fill="#ffffff" y="-37.499999" height="449.999989" fill-opacity="1"/><rect x="-37.5" width="450" fill="#ffffff" y="-37.499999" height="449.999989" fill-opacity="1"/><path fill="#ffffff" d="M 324.113281 49.472656 L 50.875 49.472656 C 35.039062 49.472656 22.15625 62.359375 22.15625 78.195312 L 22.15625 296.804688 C 22.15625 312.640625 35.039062 325.523438 50.875 325.523438 L 324.113281 325.523438 C 339.953125 325.523438 352.835938 312.640625 352.835938 296.804688 L 352.835938 78.195312 C 352.835938 62.359375 339.953125 49.472656 324.113281 49.472656 " fill-opacity="1" fill-rule="nonzero"/><g clip-path="url(#5c4cb1b1cf)"><path stroke-linecap="butt" transform="matrix(2.233243, 0, 0, 2.23344, -129.232633, 5037.043349)" fill="none" stroke-linejoin="miter" d="M 202.998903 -2233.134386 L 80.648465 -2233.134386 C 73.55746 -2233.134386 67.788804 -2227.364488 67.788804 -2220.274107 L 67.788804 -2122.393968 C 67.788804 -2115.303587 73.55746 -2109.535438 80.648465 -2109.535438 L 202.998903 -2109.535438 C 210.091657 -2109.535438 215.860313 -2115.303587 215.860313 -2122.393968 L 215.860313 -2220.274107 C 215.860313 -2227.364488 210.091657 -2233.134386 202.998903 -2233.134386 " stroke="#000000" stroke-width="1.2" stroke-opacity="1" stroke-miterlimit="4"/></g><path fill="#000000" d="M 50.878906 317.296875 C 45.4375 317.296875 40.292969 315.15625 36.410156 311.269531 C 32.523438 307.390625 30.382812 302.246094 30.382812 296.804688 L 30.382812 78.195312 C 30.382812 72.75 32.523438 67.609375 36.410156 63.722656 C 40.292969 59.835938 45.4375 57.695312 50.878906 57.695312 L 324.113281 57.695312 C 329.5625 57.695312 334.699219 59.835938 338.585938 63.722656 C 342.472656 67.609375 344.609375 72.75 344.609375 78.195312 L 344.609375 296.804688 C 344.609375 302.246094 342.472656 307.390625 338.585938 311.269531 C 334.699219 315.15625 329.5625 317.296875 324.113281 317.296875 Z M 50.878906 317.296875 " fill-opacity="1" fill-rule="nonzero"/><path fill="#ffffff" d="M 88.445312 151.0625 L 88.445312 96.410156 L 128.472656 96.410156 L 128.472656 106.191406 L 98.453125 106.191406 L 98.453125 116.355469 L 114.804688 116.355469 L 114.804688 126.324219 L 98.453125 126.324219 L 98.453125 141.28125 L 129.433594 141.28125 L 129.433594 151.0625 Z M 88.445312 151.0625 " fill-opacity="1" fill-rule="nonzero"/><path fill="#ffffff" d="M 215.417969 96.410156 L 225.253906 96.410156 L 225.253906 151.0625 L 215.417969 151.0625 Z M 215.417969 96.410156 " fill-opacity="1" fill-rule="nonzero"/><path fill="#ffffff" d="M 270.839844 106 L 270.839844 151.0625 L 261.265625 151.0625 L 261.265625 106 L 245.5625 106 L 245.5625 96.410156 L 286.546875 96.410156 L 286.546875 106 Z M 270.839844 106 " fill-opacity="1" fill-rule="nonzero"/><path fill="#ffffff" d="M 183.015625 151.0625 L 170.691406 131.691406 L 158.554688 151.0625 L 147 151.0625 L 164.914062 122.296875 L 148.539062 96.410156 L 160.289062 96.410156 L 170.691406 113.09375 L 181.09375 96.410156 L 192.839844 96.410156 L 176.660156 122.296875 L 194.574219 151.0625 Z M 183.015625 151.0625 " fill-opacity="1" fill-rule="nonzero"/><path fill="#ffffff" d="M 226.746094 264.414062 C 226.769531 264.371094 226.792969 264.335938 226.816406 264.296875 C 226.953125 264.042969 227.058594 263.789062 227.128906 263.527344 C 227.140625 263.503906 227.160156 263.480469 227.160156 263.457031 L 227.148438 263.457031 C 227.167969 263.371094 227.203125 263.277344 227.21875 263.191406 L 227.34375 262.304688 L 239.890625 197.535156 L 240.0625 196.316406 C 240.230469 195.101562 239.828125 193.886719 239.015625 193.078125 C 238.09375 192.152344 236.875 191.742188 235.71875 191.976562 L 234.90625 192.136719 L 169.949219 204.792969 L 168.8125 204.976562 C 168.0625 205.148438 167.480469 205.496094 166.902344 206.074219 C 165.457031 207.519531 165.402344 209.890625 166.902344 211.394531 C 167.078125 211.570312 167.367188 211.738281 167.597656 211.855469 L 168.292969 212.246094 L 191.410156 226.457031 L 134.902344 278.347656 L 153.808594 297.257812 L 205.699219 240.855469 L 205.699219 240.742188 L 219.695312 263.515625 L 220.277344 264.34375 C 220.449219 264.632812 220.625 264.921875 220.855469 265.152344 C 222.300781 266.597656 224.726562 266.601562 226.171875 265.152344 C 226.40625 264.921875 226.585938 264.667969 226.746094 264.410156 " fill-opacity="1" fill-rule="nonzero"/><g clip-path="url(#653a224dd7)"><path fill="#000000" d="M 66.429688 87.320312 L 308.480469 87.320312 L 308.480469 151.070312 L 66.429688 151.070312 Z M 66.429688 87.320312 " fill-opacity="1" fill-rule="nonzero"/></g><g fill="#ffffff" fill-opacity="1"><g transform="translate(186.299656, 122.571422)"><g><path d="M 1.1875 0.046875 C 1.019531 0.046875 0.882812 0 0.78125 -0.09375 C 0.6875 -0.1875 0.640625 -0.3125 0.640625 -0.46875 C 0.640625 -0.625 0.6875 -0.75 0.78125 -0.84375 C 0.882812 -0.945312 1.019531 -1 1.1875 -1 C 1.351562 -1 1.484375 -0.953125 1.578125 -0.859375 C 1.679688 -0.765625 1.734375 -0.640625 1.734375 -0.484375 C 1.734375 -0.328125 1.679688 -0.195312 1.578125 -0.09375 C 1.484375 0 1.351562 0.046875 1.1875 0.046875 Z M 1.1875 0.046875 "/></g></g></g><g fill="#ffffff" fill-opacity="1"><g transform="translate(208.995473, 227.308968)"><g><path d="M 2.5625 0 L 0.5625 0 L 4.359375 -6.359375 L 0.75 -12.28125 L 2.796875 -12.28125 L 5.625 -7.5625 L 5.890625 -7.5625 L 8.734375 -12.28125 L 10.703125 -12.28125 L 7.171875 -6.359375 L 10.890625 0 L 8.84375 0 L 5.8125 -5.1875 L 5.546875 -5.1875 Z M 2.5625 0 "/></g></g></g><g fill="#ffffff" fill-opacity="1"><g transform="translate(48.398438, 136.821413)"><g><path d="M 15.953125 0 L 8.5625 0 L 0.90625 -33.40625 L 7.5 -33.40625 L 12.546875 -9.921875 L 13.109375 -9.921875 L 19.109375 -33.40625 L 24.75 -33.40625 L 30.84375 -9.921875 L 31.421875 -9.921875 L 36.484375 -33.40625 L 42.84375 -33.40625 L 35.21875 0 L 27.8125 0 L 21.953125 -21.546875 L 21.484375 -21.546875 Z M 15.953125 0 "/></g></g></g><g fill="#ffffff" fill-opacity="1"><g transform="translate(92.118803, 136.821413)"><g><path d="M 17.25 -33.40625 C 19.644531 -33.40625 21.691406 -32.96875 23.390625 -32.09375 C 25.085938 -31.21875 26.367188 -29.988281 27.234375 -28.40625 C 28.109375 -26.832031 28.546875 -25.003906 28.546875 -22.921875 C 28.546875 -20.828125 28.109375 -18.992188 27.234375 -17.421875 C 26.367188 -15.859375 25.085938 -14.640625 23.390625 -13.765625 C 21.691406 -12.890625 19.644531 -12.453125 17.25 -12.453125 L 10.9375 -12.453125 L 10.9375 0 L 4.34375 0 L 4.34375 -33.40625 Z M 16.390625 -17.6875 C 20.054688 -17.6875 21.890625 -19.429688 21.890625 -22.921875 C 21.890625 -26.421875 20.054688 -28.171875 16.390625 -28.171875 L 10.9375 -28.171875 L 10.9375 -17.6875 Z M 16.390625 -17.6875 "/></g></g></g><g fill="#ffffff" fill-opacity="1"><g transform="translate(122.636256, 136.821413)"><g/></g></g><g fill="#ffffff" fill-opacity="1"><g transform="translate(133.669138, 136.821413)"><g><path d="M 18.21875 0.484375 C 15.15625 0.484375 12.453125 -0.140625 10.109375 -1.390625 C 7.773438 -2.640625 5.941406 -4.546875 4.609375 -7.109375 C 3.285156 -9.679688 2.625 -12.878906 2.625 -16.703125 C 2.625 -20.523438 3.285156 -23.71875 4.609375 -26.28125 C 5.941406 -28.851562 7.773438 -30.765625 10.109375 -32.015625 C 12.453125 -33.265625 15.15625 -33.890625 18.21875 -33.890625 C 21.269531 -33.890625 23.960938 -33.265625 26.296875 -32.015625 C 28.628906 -30.773438 30.453125 -28.867188 31.765625 -26.296875 C 33.085938 -23.722656 33.75 -20.523438 33.75 -16.703125 C 33.75 -12.878906 33.085938 -9.679688 31.765625 -7.109375 C 30.453125 -4.535156 28.628906 -2.625 26.296875 -1.375 C 23.960938 -0.132812 21.269531 0.484375 18.21875 0.484375 Z M 18.21875 -5.25 C 21.050781 -5.25 23.210938 -6.160156 24.703125 -7.984375 C 26.191406 -9.804688 26.9375 -12.710938 26.9375 -16.703125 C 26.9375 -20.691406 26.191406 -23.597656 24.703125 -25.421875 C 23.210938 -27.253906 21.050781 -28.171875 18.21875 -28.171875 C 15.363281 -28.171875 13.1875 -27.253906 11.6875 -25.421875 C 10.1875 -23.597656 9.4375 -20.691406 9.4375 -16.703125 C 9.4375 -12.710938 10.1875 -9.804688 11.6875 -7.984375 C 13.1875 -6.160156 15.363281 -5.25 18.21875 -5.25 Z M 18.21875 -5.25 "/></g></g></g><g fill="#ffffff" fill-opacity="1"><g transform="translate(170.057091, 136.821413)"><g><path d="M 4.40625 0 L 4.40625 -20.203125 L 0.84375 -20.203125 L 0.84375 -25.21875 L 4.40625 -25.21875 C 4.144531 -26.289062 4.015625 -27.289062 4.015625 -28.21875 C 4.015625 -29.820312 4.378906 -31.191406 5.109375 -32.328125 C 5.847656 -33.460938 6.898438 -34.328125 8.265625 -34.921875 C 9.640625 -35.515625 11.269531 -35.8125 13.15625 -35.8125 C 15.945312 -35.8125 18.03125 -35.328125 19.40625 -34.359375 L 17.921875 -29.703125 L 17.4375 -29.609375 C 16.488281 -30.285156 15.273438 -30.625 13.796875 -30.625 C 12.660156 -30.625 11.804688 -30.34375 11.234375 -29.78125 C 10.660156 -29.226562 10.375 -28.472656 10.375 -27.515625 C 10.375 -27.097656 10.398438 -26.71875 10.453125 -26.375 C 10.503906 -26.03125 10.597656 -25.644531 10.734375 -25.21875 L 17.9375 -25.21875 L 17.9375 -20.203125 L 10.734375 -20.203125 L 10.734375 0 Z M 4.40625 0 "/></g></g></g><g fill="#ffffff" fill-opacity="1"><g transform="translate(188.810843, 136.821413)"><g><path d="M 4.40625 0 L 4.40625 -20.203125 L 0.84375 -20.203125 L 0.84375 -25.21875 L 4.40625 -25.21875 C 4.144531 -26.289062 4.015625 -27.289062 4.015625 -28.21875 C 4.015625 -29.820312 4.378906 -31.191406 5.109375 -32.328125 C 5.847656 -33.460938 6.898438 -34.328125 8.265625 -34.921875 C 9.640625 -35.515625 11.269531 -35.8125 13.15625 -35.8125 C 15.945312 -35.8125 18.03125 -35.328125 19.40625 -34.359375 L 17.921875 -29.703125 L 17.4375 -29.609375 C 16.488281 -30.285156 15.273438 -30.625 13.796875 -30.625 C 12.660156 -30.625 11.804688 -30.34375 11.234375 -29.78125 C 10.660156 -29.226562 10.375 -28.472656 10.375 -27.515625 C 10.375 -27.097656 10.398438 -26.71875 10.453125 -26.375 C 10.503906 -26.03125 10.597656 -25.644531 10.734375 -25.21875 L 17.9375 -25.21875 L 17.9375 -20.203125 L 10.734375 -20.203125 L 10.734375 0 Z M 4.40625 0 "/></g></g></g><g fill="#ffffff" fill-opacity="1"><g transform="translate(206.993398, 136.821413)"><g><path d="M 3.640625 0 L 3.640625 -25.203125 L 9.78125 -25.203125 L 9.78125 -21.453125 L 10.265625 -21.359375 C 10.867188 -22.765625 11.664062 -23.796875 12.65625 -24.453125 C 13.644531 -25.109375 14.847656 -25.4375 16.265625 -25.4375 C 17.703125 -25.4375 18.789062 -25.191406 19.53125 -24.703125 L 18.46875 -19.234375 L 17.984375 -19.140625 C 17.566406 -19.316406 17.164062 -19.441406 16.78125 -19.515625 C 16.40625 -19.585938 15.945312 -19.625 15.40625 -19.625 C 13.632812 -19.625 12.285156 -19.003906 11.359375 -17.765625 C 10.429688 -16.523438 9.96875 -14.535156 9.96875 -11.796875 L 9.96875 0 Z M 3.640625 0 "/></g></g></g><g fill="#ffffff" fill-opacity="1"><g transform="translate(226.272274, 136.821413)"><g><path d="M 9.828125 0.484375 C 8.210938 0.484375 6.8125 0.1875 5.625 -0.40625 C 4.4375 -1 3.519531 -1.867188 2.875 -3.015625 C 2.238281 -4.171875 1.921875 -5.554688 1.921875 -7.171875 C 1.921875 -8.671875 2.238281 -9.925781 2.875 -10.9375 C 3.519531 -11.945312 4.507812 -12.773438 5.84375 -13.421875 C 7.1875 -14.066406 8.941406 -14.566406 11.109375 -14.921875 C 12.617188 -15.160156 13.765625 -15.425781 14.546875 -15.71875 C 15.328125 -16.007812 15.851562 -16.335938 16.125 -16.703125 C 16.40625 -17.066406 16.546875 -17.53125 16.546875 -18.09375 C 16.546875 -18.90625 16.265625 -19.523438 15.703125 -19.953125 C 15.140625 -20.378906 14.203125 -20.59375 12.890625 -20.59375 C 11.484375 -20.59375 10.144531 -20.28125 8.875 -19.65625 C 7.613281 -19.03125 6.519531 -18.207031 5.59375 -17.1875 L 5.140625 -17.1875 L 2.484375 -21.1875 C 3.765625 -22.601562 5.328125 -23.707031 7.171875 -24.5 C 9.015625 -25.289062 11.023438 -25.6875 13.203125 -25.6875 C 16.546875 -25.6875 18.960938 -24.976562 20.453125 -23.5625 C 21.941406 -22.144531 22.6875 -20.132812 22.6875 -17.53125 L 22.6875 -6.578125 C 22.6875 -5.453125 23.179688 -4.890625 24.171875 -4.890625 C 24.554688 -4.890625 24.929688 -4.957031 25.296875 -5.09375 L 25.609375 -5 L 26.078125 -0.59375 C 25.722656 -0.363281 25.234375 -0.175781 24.609375 -0.03125 C 23.984375 0.113281 23.296875 0.1875 22.546875 0.1875 C 21.046875 0.1875 19.867188 -0.0976562 19.015625 -0.671875 C 18.171875 -1.253906 17.566406 -2.164062 17.203125 -3.40625 L 16.71875 -3.453125 C 15.488281 -0.828125 13.191406 0.484375 9.828125 0.484375 Z M 11.84375 -4.25 C 13.300781 -4.25 14.46875 -4.738281 15.34375 -5.71875 C 16.21875 -6.707031 16.65625 -8.078125 16.65625 -9.828125 L 16.65625 -12.390625 L 16.21875 -12.46875 C 15.84375 -12.164062 15.34375 -11.910156 14.71875 -11.703125 C 14.101562 -11.503906 13.21875 -11.304688 12.0625 -11.109375 C 10.695312 -10.878906 9.710938 -10.484375 9.109375 -9.921875 C 8.503906 -9.367188 8.203125 -8.582031 8.203125 -7.5625 C 8.203125 -6.476562 8.519531 -5.65625 9.15625 -5.09375 C 9.800781 -4.53125 10.695312 -4.25 11.84375 -4.25 Z M 11.84375 -4.25 "/></g></g></g><g fill="#ffffff" fill-opacity="1"><g transform="translate(252.837992, 136.821413)"><g><path d="M 3.640625 0 L 3.640625 -25.203125 L 9.71875 -25.203125 L 9.71875 -21.828125 L 10.1875 -21.734375 C 11.007812 -23.085938 11.972656 -24.082031 13.078125 -24.71875 C 14.179688 -25.363281 15.597656 -25.6875 17.328125 -25.6875 C 19.222656 -25.6875 20.75 -25.304688 21.90625 -24.546875 C 23.070312 -23.796875 23.921875 -22.695312 24.453125 -21.25 L 24.921875 -21.25 C 25.703125 -22.757812 26.707031 -23.875 27.9375 -24.59375 C 29.164062 -25.320312 30.691406 -25.6875 32.515625 -25.6875 C 37.742188 -25.6875 40.359375 -22.773438 40.359375 -16.953125 L 40.359375 0 L 34.03125 0 L 34.03125 -16.15625 C 34.03125 -17.632812 33.738281 -18.703125 33.15625 -19.359375 C 32.570312 -20.015625 31.644531 -20.34375 30.375 -20.34375 C 26.894531 -20.34375 25.15625 -18.019531 25.15625 -13.375 L 25.15625 0 L 18.828125 0 L 18.828125 -16.15625 C 18.828125 -17.632812 18.53125 -18.703125 17.9375 -19.359375 C 17.351562 -20.015625 16.425781 -20.34375 15.15625 -20.34375 C 13.519531 -20.34375 12.242188 -19.796875 11.328125 -18.703125 C 10.421875 -17.609375 9.96875 -15.875 9.96875 -13.5 L 9.96875 0 Z M 3.640625 0 "/></g></g></g><g fill="#ffffff" fill-opacity="1"><g transform="translate(296.421302, 136.821413)"><g><path d="M 3.640625 10.21875 L 3.640625 -25.203125 L 9.96875 -25.203125 L 9.96875 -21.90625 L 10.4375 -21.828125 C 11.1875 -23.097656 12.1875 -24.054688 13.4375 -24.703125 C 14.6875 -25.359375 16.148438 -25.6875 17.828125 -25.6875 C 19.847656 -25.6875 21.613281 -25.203125 23.125 -24.234375 C 24.644531 -23.273438 25.828125 -21.816406 26.671875 -19.859375 C 27.523438 -17.910156 27.953125 -15.488281 27.953125 -12.59375 C 27.953125 -9.707031 27.503906 -7.289062 26.609375 -5.34375 C 25.710938 -3.394531 24.472656 -1.9375 22.890625 -0.96875 C 21.304688 0 19.476562 0.484375 17.40625 0.484375 C 15.84375 0.484375 14.488281 0.222656 13.34375 -0.296875 C 12.195312 -0.828125 11.226562 -1.648438 10.4375 -2.765625 L 9.96875 -2.671875 L 9.96875 10.21875 Z M 15.65625 -4.890625 C 17.539062 -4.890625 18.96875 -5.503906 19.9375 -6.734375 C 20.914062 -7.972656 21.40625 -9.925781 21.40625 -12.59375 C 21.40625 -15.257812 20.914062 -17.210938 19.9375 -18.453125 C 18.96875 -19.691406 17.539062 -20.3125 15.65625 -20.3125 C 13.882812 -20.3125 12.476562 -19.671875 11.4375 -18.390625 C 10.40625 -17.109375 9.890625 -15.175781 9.890625 -12.59375 C 9.890625 -10.019531 10.40625 -8.09375 11.4375 -6.8125 C 12.476562 -5.53125 13.882812 -4.890625 15.65625 -4.890625 Z M 15.65625 -4.890625 "/></g></g></g></svg>