<svg xmlns="http://www.w3.org/2000/svg" xmlns:xlink="http://www.w3.org/1999/xlink" width="500" zoomAndPan="magnify" viewBox="0 0 375 374.999991" height="500" preserveAspectRatio="xMidYMid meet" version="1.0"><defs><g/><clipPath id="4ab04d7248"><path d="M 20.8125 48.109375 L 353.8125 48.109375 L 353.8125 327.109375 L 20.8125 327.109375 Z M 20.8125 48.109375 " clip-rule="nonzero"/></clipPath><clipPath id="fa3ada376c"><path d="M 58.929688 81.695312 L 301.070312 81.695312 L 301.070312 299.953125 L 58.929688 299.953125 Z M 58.929688 81.695312 " clip-rule="nonzero"/></clipPath><clipPath id="f2bd5d9717"><path d="M 94 116 L 267 116 L 267 281 L 94 281 Z M 94 116 " clip-rule="nonzero"/></clipPath><clipPath id="f7e91278f3"><path d="M 66.167969 227.371094 L 231.085938 72.113281 L 308.714844 154.574219 L 143.796875 309.828125 Z M 66.167969 227.371094 " clip-rule="nonzero"/></clipPath><clipPath id="063d45c6a1"><path d="M 66.167969 227.371094 L 231.085938 72.113281 L 308.714844 154.574219 L 143.796875 309.828125 Z M 66.167969 227.371094 " clip-rule="nonzero"/></clipPath><clipPath id="f41ece6151"><path d="M 66.167969 227.371094 L 231.085938 72.113281 L 308.714844 154.574219 L 143.796875 309.828125 Z M 66.167969 227.371094 " clip-rule="nonzero"/></clipPath><clipPath id="39c3c3bf12"><path d="M 90 112 L 271 112 L 271 284 L 90 284 Z M 90 112 " clip-rule="nonzero"/></clipPath><clipPath id="8d23693ed3"><path d="M 66.167969 227.371094 L 231.085938 72.113281 L 308.714844 154.574219 L 143.796875 309.828125 Z M 66.167969 227.371094 " clip-rule="nonzero"/></clipPath><clipPath id="2c27c486ac"><path d="M 66.167969 227.371094 L 231.085938 72.113281 L 308.714844 154.574219 L 143.796875 309.828125 Z M 66.167969 227.371094 " clip-rule="nonzero"/></clipPath><clipPath id="6c88e0a9d5"><path d="M 66.167969 227.371094 L 231.085938 72.113281 L 308.714844 154.574219 L 143.796875 309.828125 Z M 66.167969 227.371094 " clip-rule="nonzero"/></clipPath></defs><rect x="-37.5" width="450" fill="#ffffff" y="-37.499999" height="449.999989" fill-opacity="1"/><rect x="-37.5" width="450" fill="#ffffff" y="-37.499999" height="449.999989" fill-opacity="1"/><path fill="#ffffff" d="M 324.113281 49.472656 L 50.875 49.472656 C 35.039062 49.472656 22.15625 62.359375 22.15625 78.195312 L 22.15625 296.804688 C 22.15625 312.640625 35.039062 325.523438 50.875 325.523438 L 324.113281 325.523438 C 339.953125 325.523438 352.835938 312.640625 352.835938 296.804688 L 352.835938 78.195312 C 352.835938 62.359375 339.953125 49.472656 324.113281 49.472656 " fill-opacity="1" fill-rule="nonzero"/><g clip-path="url(#4ab04d7248)"><path stroke-linecap="butt" transform="matrix(2.233243, 0, 0, 2.23344, -129.232633, 5037.043349)" fill="none" stroke-linejoin="miter" d="M 202.998903 -2233.134386 L 80.648465 -2233.134386 C 73.55746 -2233.134386 67.788804 -2227.364488 67.788804 -2220.274107 L 67.788804 -2122.393968 C 67.788804 -2115.303587 73.55746 -2109.535438 80.648465 -2109.535438 L 202.998903 -2109.535438 C 210.091657 -2109.535438 215.860313 -2115.303587 215.860313 -2122.393968 L 215.860313 -2220.274107 C 215.860313 -2227.364488 210.091657 -2233.134386 202.998903 -2233.134386 " stroke="#000000" stroke-width="1.2" stroke-opacity="1" stroke-miterlimit="4"/></g><path fill="#000000" d="M 50.878906 317.296875 C 45.4375 317.296875 40.292969 315.15625 36.410156 311.269531 C 32.523438 307.390625 30.382812 302.246094 30.382812 296.804688 L 30.382812 78.195312 C 30.382812 72.75 32.523438 67.609375 36.410156 63.722656 C 40.292969 59.835938 45.4375 57.695312 50.878906 57.695312 L 324.113281 57.695312 C 329.5625 57.695312 334.699219 59.835938 338.585938 63.722656 C 342.472656 67.609375 344.609375 72.75 344.609375 78.195312 L 344.609375 296.804688 C 344.609375 302.246094 342.472656 307.390625 338.585938 311.269531 C 334.699219 315.15625 329.5625 317.296875 324.113281 317.296875 Z M 50.878906 317.296875 " fill-opacity="1" fill-rule="nonzero"/><path fill="#ffffff" d="M 88.445312 151.0625 L 88.445312 96.410156 L 128.472656 96.410156 L 128.472656 106.191406 L 98.453125 106.191406 L 98.453125 116.355469 L 114.804688 116.355469 L 114.804688 126.324219 L 98.453125 126.324219 L 98.453125 141.28125 L 129.433594 141.28125 L 129.433594 151.0625 Z M 88.445312 151.0625 " fill-opacity="1" fill-rule="nonzero"/><path fill="#ffffff" d="M 215.417969 96.410156 L 225.253906 96.410156 L 225.253906 151.0625 L 215.417969 151.0625 Z M 215.417969 96.410156 " fill-opacity="1" fill-rule="nonzero"/><path fill="#ffffff" d="M 270.839844 106 L 270.839844 151.0625 L 261.265625 151.0625 L 261.265625 106 L 245.5625 106 L 245.5625 96.410156 L 286.546875 96.410156 L 286.546875 106 Z M 270.839844 106 " fill-opacity="1" fill-rule="nonzero"/><path fill="#ffffff" d="M 183.015625 151.0625 L 170.691406 131.691406 L 158.554688 151.0625 L 147 151.0625 L 164.914062 122.296875 L 148.539062 96.410156 L 160.289062 96.410156 L 170.691406 113.09375 L 181.09375 96.410156 L 192.839844 96.410156 L 176.660156 122.296875 L 194.574219 151.0625 Z M 183.015625 151.0625 " fill-opacity="1" fill-rule="nonzero"/><path fill="#ffffff" d="M 226.746094 264.414062 C 226.769531 264.371094 226.792969 264.335938 226.816406 264.296875 C 226.953125 264.042969 227.058594 263.789062 227.128906 263.527344 C 227.140625 263.503906 227.160156 263.480469 227.160156 263.457031 L 227.148438 263.457031 C 227.167969 263.371094 227.203125 263.277344 227.21875 263.191406 L 227.34375 262.304688 L 239.890625 197.535156 L 240.0625 196.316406 C 240.230469 195.101562 239.828125 193.886719 239.015625 193.078125 C 238.09375 192.152344 236.875 191.742188 235.71875 191.976562 L 234.90625 192.136719 L 169.949219 204.792969 L 168.8125 204.976562 C 168.0625 205.148438 167.480469 205.496094 166.902344 206.074219 C 165.457031 207.519531 165.402344 209.890625 166.902344 211.394531 C 167.078125 211.570312 167.367188 211.738281 167.597656 211.855469 L 168.292969 212.246094 L 191.410156 226.457031 L 134.902344 278.347656 L 153.808594 297.257812 L 205.699219 240.855469 L 205.699219 240.742188 L 219.695312 263.515625 L 220.277344 264.34375 C 220.449219 264.632812 220.625 264.921875 220.855469 265.152344 C 222.300781 266.597656 224.726562 266.601562 226.171875 265.152344 C 226.40625 264.921875 226.585938 264.667969 226.746094 264.410156 " fill-opacity="1" fill-rule="nonzero"/><g clip-path="url(#fa3ada376c)"><path fill="#000000" d="M 58.929688 81.695312 L 301.058594 81.695312 L 301.058594 299.953125 L 58.929688 299.953125 Z M 58.929688 81.695312 " fill-opacity="1" fill-rule="nonzero"/></g><g fill="#ffffff" fill-opacity="1"><g transform="translate(178.799657, 194.196417)"><g><path d="M 1.1875 0.046875 C 1.019531 0.046875 0.882812 0 0.78125 -0.09375 C 0.6875 -0.1875 0.640625 -0.3125 0.640625 -0.46875 C 0.640625 -0.625 0.6875 -0.75 0.78125 -0.84375 C 0.882812 -0.945312 1.019531 -1 1.1875 -1 C 1.351562 -1 1.484375 -0.953125 1.578125 -0.859375 C 1.679688 -0.765625 1.734375 -0.640625 1.734375 -0.484375 C 1.734375 -0.328125 1.679688 -0.195312 1.578125 -0.09375 C 1.484375 0 1.351562 0.046875 1.1875 0.046875 Z M 1.1875 0.046875 "/></g></g></g><g clip-path="url(#f2bd5d9717)"><g clip-path="url(#f7e91278f3)"><g clip-path="url(#063d45c6a1)"><g clip-path="url(#f41ece6151)"><path fill="#ffffff" d="M 266.933594 116.265625 L 155.746094 148.730469 L 178.386719 172.777344 L 94.671875 251.589844 L 121.46875 280.054688 L 205.183594 201.246094 L 227.824219 225.292969 Z M 266.933594 116.265625 " fill-opacity="1" fill-rule="nonzero"/></g></g></g></g><g clip-path="url(#39c3c3bf12)"><g clip-path="url(#8d23693ed3)"><g clip-path="url(#2c27c486ac)"><g clip-path="url(#6c88e0a9d5)"><path fill="#000000" d="M 230.53125 228.167969 C 230.007812 228.65625 229.355469 229.003906 228.632812 229.152344 C 227.289062 229.429688 225.898438 228.988281 224.957031 227.992188 L 205.023438 206.816406 L 124.171875 282.929688 C 122.589844 284.417969 120.097656 284.339844 118.601562 282.753906 L 91.804688 254.289062 C 90.3125 252.699219 90.382812 250.207031 91.964844 248.71875 L 172.816406 172.605469 L 152.882812 151.429688 C 151.941406 150.429688 151.585938 149.015625 151.941406 147.691406 C 152.300781 146.371094 153.320312 145.328125 154.632812 144.945312 L 265.820312 112.484375 C 267.246094 112.066406 268.78125 112.488281 269.800781 113.566406 C 270.820312 114.648438 271.144531 116.210938 270.644531 117.605469 L 231.535156 226.632812 C 231.320312 227.226562 230.972656 227.75 230.53125 228.167969 Z M 121.628906 274.484375 L 202.480469 198.371094 C 204.0625 196.882812 206.558594 196.960938 208.050781 198.546875 L 226.28125 217.914062 L 260.609375 122.222656 L 163.023438 150.714844 L 181.253906 170.082031 C 182.746094 171.667969 182.675781 174.164062 181.09375 175.652344 L 100.242188 251.765625 Z M 121.628906 274.484375 " fill-opacity="1" fill-rule="nonzero"/></g></g></g></g></svg>